<svg height="50rem" viewBox="0 0 30.824875 26.157473" width="50rem" xmlns="http://www.w3.org/2000/svg"><g fill="#000" transform="matrix(.26458333 0 0 .26458333 0 -.00982)"><path d="m110.5 47.8c-.8 2.1-.5 4.8-1.8 6.6-.1-1 .5-2 .6-3.2 1-7-5.1-11.1-6.5-17-.1 1.6 0 3.1.3 4.5.3 7.4 5.2 13.4 3.8 21.1 1.4-1.8 2.4-3.7 4.1-5.4 5.6-5.8 7-15.5 3.8-22.9 1 6.1-2.8 10.8-4.3 16.3"/><path d="m109.3 31.2c.1 2.4.5 4.7.3 7.1-.3-.9-.4-1.9-.7-2.9-1.2-5.3-7.4-7.9-9.9-12.3.4 1.5.7 3 1.2 4.4 2.2 6.3 8.7 10.5 9.5 17.3.6-6.5 5.1-11.7 3.4-18.7-.9-3.6-2.4-7-5-9.7 3 4.1 1.4 9.9 1.2 14.8"/><path d="m25.4 77.1c-2.2-6.1-4.1-12.4-8.9-17.3l1.1 2.9c1.1 6.4 1.6 13.5 7.4 17.5l-.1.1c-1.9-.8-3.3-2.4-5-3.4-5.5-3.6-13.1-5.1-16.2-11.9.8 5 4.3 9.4 8.3 12.5 4.9 4.3 11.7 4 17.7 5.7-2.1-1.7-3.3-3.7-4.3-6.1"/><path d="m18.3 73.9c-4.4-7.5-2-17.8-5.6-25.7.5 2.6-.3 4.8-.7 7.1-1.3 4.4-.7 9.7 1.9 13.3-.8-.4-1.4-1.4-1.9-2.3-3.2-6.1-11.3-9.6-12-17 0 2.7 0 5.5.8 7.9 2.2 8.3 11.3 12.5 17.5 16.7"/><path d="m44.8 85.9c-8.6-.4-13.2-9.7-20.1-13.7 3 3.5 3.1 8.1 7.2 10.9 1.6 1.4 3.7 1.7 5.5 2.4-2 .2-3.8-.6-5.8-.7-6.6-.8-14.3 0-19.1-5.4 2.2 3.9 6.1 7.2 10.2 8.5 7.8 2.9 14.8-1.4 22.1-2"/><path d="m85.8 84.3c-2.2.3-4.4.9-6.6.9.1-.1.2-.2.3-.2 7.2-.6 9.3-8.5 12.3-13.3-4.4 2.9-8.3 7.8-12.3 11-2.2 1.7-4.9 2.2-7.5 3 5.8.4 10.6 3.2 16.7 2.8 6.5-.3 12.4-4.1 15.5-9.8-4.6 5.3-11.8 5-18.4 5.6"/><path d="m80.4 90.2c-6.6-3-14.3-6.4-22-3.5-3.9-1.3-9-1.3-12.9 0-6.8 3.1-16.1 7.8-23.3 2.6 1.4 1.6 2.8 2.4 4.4 3.5 4.6 3 11.3 2.7 16.1.3 4.4-1.9 7.8-7.4 13.4-5.6-4.8 2.4-9.1 5.3-13.1 9.4l2.4 2c3.5-4.6 8.2-8.4 13.2-10.7 4.9 2.4 9.3 6.4 13 10.5l2.4-2c-3.9-3.7-8.3-6.8-13-9.2 1.2-.3 2.7-.2 3.9-.1 5 2.2 8.9 6.6 14.6 7.3 6 1 11.4-1.5 15.1-5.9l-2.9 1.5c-3.4 1.4-7.9 1-11.3-.1"/><path d="m105.9 71.4c-4.8 2.2-9.7 4.8-13.7 8.3h-.5l.3-.4c7-4.6 5.1-13.6 8.1-20.2l-3.2 4.2c-4.4 6-3.9 14.3-9.9 19.4 3.1-1 6.6-1.4 9.8-2.1 7.3-1.9 15-9 16-16.5-1.4 3.2-4.2 5.5-6.9 7.3"/><path d="m102.5 18.5c-.9-1.9-1.1-4-2-5.9-1.9-5.1-7.6-7.6-12.4-9.2l3 3c3 4.6 7.2 9.2 11.4 12.1"/><path d="m16.9 23.7c-2.5 4.6-8.6 7.3-9.7 12.7 0 .9-.3 1.7-.5 2.6l-.2-.2.3-3.5c1-6.3-2.6-12.8.6-18.2-2.2 2.7-3.7 5.9-4.5 9.3-1.5 7.1 2.8 12.6 3.7 19.1 1.3-8.1 9.8-13.3 10.3-21.8"/><path d="m115 52.7c-3.4 5.3-9.2 9.6-12.1 15.1-.1.2-.3.3-.5.1l.6-.7c4.1-5.9.4-13.2.7-19.8-3.7 7.9-1 18.4-5.5 26l.7-.6c8.7-4.8 19.2-12.8 17.4-24.4 0 1.6-.5 3-1.3 4.3"/><path d="m29.7 14.3.2.6 4.2 4.1c-4.5 4.3-7 9.9-8.3 15.7-.2 2-.8 3.9-.5 5.9l-6.3-.1c.4-10 4.1-19.1 10.7-26.2m27-12.2c-.1 2-.2 4.2.1 6.1-8.1.3-15.4 3.4-21.1 9l-4.6-4.4c7.2-6.4 15.8-10.1 25.6-10.7m.1 22.5c-3.6.1-7 1.6-9.6 4.1-1.5-1.4-2.8-3-4.4-4.1 4.1-3.2 8.6-5.6 13.9-5.9l.2-.2c-.3 1.9-.2 4.3-.1 6.1m-1.6 5.9c-.6 0-.7.7-.9 1.1.3.5-.4.9-.5 1.4-.4 0-1 .5-1.3-.1-.7.3-1.1 0-1.5-.5-.5.1-.5 1-1 .3 0-.2.6-.3.4-.7-.6-.5-1.4-.8-2.1-1 2.3-2.5 5.4-3.7 8.6-4.2.2 1.3-.2 3.1.3 4.4-.6-.7-2.3 1.1-2-.7m2.8 3.8c0 .1.1.2.2.3-.2-.1-1.1-.2-1.2.3 0 .8 1 1 1.4 1.6 1.6-.7 1.9 1.4 3.2 1.7-.7.7 1 1.4-.1 1.8 0 .4-.4.6-.3 1 .8.1.7.9 1.1 1.4 0 .5-.2 1.2.5 1.5-.1.7-.2 1.4-.5 1.9-.7.2-1.3 0-2 .1-1.1.6-.4 2.6-1.9 2.5-1.6.1-2.9-.4-4.2-1.3 1-.2 1.8.1 2.5-.7 0-.4.5-.7.3-1.1.4-.6 1-1.4.7-2 .1-.4-.4-.5-.7-.7-.9.1-1.9-.3-2.7.4.1.6 0 1.3-.6 1.5-.7.1-.6 1.1-1.1 1.1l-.5-.8h.2c-.1.2.1.3.3.3.9 0 .5-1 .8-1.4l.7-.9c-.3-.2-.6-.5-.5-.9-.3-.2-.8 0-.9.4 0 .4 0 .7-.3 1h-.2c.1-.2-.2-.3-.3-.5-1.2 0-2.3.7-3.5.5 1.1-.2.7-3.1 2.5-1.8l.3-.3c.5.5.1 1.9 1.3 1.6.6-1.4-.1-3.6 1.7-4.2.2-1.2 1.9-1 2.6-2 .5-.4.1-1.3 0-1.9l-.1-.1c.2-.3.8-.3 1.3-.3m5.5-23.3c2.8.6 5.5 1.4 8.1 2.6 1.6.8 1 2.5 2.2 3.4.4.7-.4 1.4.4 2 0 .6.3 1.4 1 .9.3-.3.8-.7 1.3-.4.9.7 1 1.9 1 2.8.2.8.7 1.2 1.4 1.5 1.3-.3.8 1.7 2.2 1.7.6.4 1.2 1 1.9 1 .9.7 1.5 1.8 2.1 2.7.5.3 1 0 1.4-.2 1.7 3.4 2.5 7.2 2.9 11.1l-6 .1c-.2-1 0-2.3-.5-3.2.1-.6.2-1.5.3-2.2-.2-.6-.6 0-.8.1-.5 1.7-2.2 3.4-.9 5.3h-2.5c.3-.4-.2-1 .1-1.6 1.3.3 1.4-1.2 2.1-1.9.2-1 1.3-2.1.3-3.1.7-1 .3-2.4-.1-3.4-.3-.4-1.2.1-1-.7.2-.3.6-.5.5-.9-.3-.4-.6.1-.9-.1-.1-.5.8-.8.3-1.2-.6-.9-1.7.9-2-.5.1-.8-.7-1.4-1.3-1.9-.7.1-.1-.9-.6-1.1-2-1-.5-4.1-3.1-4.1-.5-.7-1.2-2-2.1-2-.3.7.7 1 .6 1.7h-.2c-.1.5.4 1.3.7 1.5-3.8-2.9-8.5-4.4-13.4-4.4.1-1.9.2-4.2-.1-6.1 1.6.3 3.2.4 4.7.6m-4.4-9.1c2 .5 4.2.4 6.2.8 7.4 1.4 14.1 4.8 19.7 10-1.5.8-2.9 2.2-3.8 3.8v.1c-.3-.7-1.2-1.1-1.1-2-.7-.7-1.2-1.7-2.2-1.9-.4-1.3-1.7-.5-2.4-1.3-2.6 1.7-4.9-1.5-7.6-1.9-2.5-.8-5.1-1.4-7.9-1.3.2-.5.2-1.1-.4-1.3-.2.1-.4.1-.5.4.2-1.7.2-3.8 0-5.4m38.4 38.1.2.2c-1.9 0-4.2 0-6.2.3-.2-4.5-1.2-9.1-3.2-13 0-1.6-1.4-2.5-1.9-3.8-1.4-1.3-2.2-3-3.9-4.2-.3-.2-.2-.8-.7-.8l.7-.1 4.1-4.4c6.4 7.1 10.5 15.7 10.9 25.8m-.6 8.2c-1.2 7.5-4.8 14.2-9.9 20.1-1.4-1.4-3-3.1-4.5-4.4 5.2-5.5 8.6-13 8.9-21.1l-.2-.4.3.3c2.1-.1 4.3.2 6.2-.3-.5 1.8-.3 3.9-.8 5.8m-37.4 32.6-.3.2v-6.5c2.1.3 4.3-.2 6.4-.6 1.4.3 2.3 2.3 3.8 1.7 3.9-1.5 4.3-6 8.3-7.3 1.2-.7 2.4-1.8 3.2-3 1.2 1.5 2.9 3.1 4.4 4.6-6.8 6.5-15.8 10.4-25.8 10.9m2.4-13c0 .7-.7 1.5-.2 2.2.3 1.2 1.5 1.1 2.2 1.9-1.3.2-3.3.2-4.7.7l.1-4.9-.4-.7c.7.9 2.1.4 3 .8m4.1-16.3c-.2.7-1.2.6-1.7 1.2-.1-.8.8-1.4 1.7-1.2m3.2-22.9c-2.6-2.4-6.4-3.8-10-4.1.1-1.9.2-4-.1-5.8 5.5.4 10.2 2.5 14.5 5.8-1.5.8-3 2.7-4.4 4.1m11.2 18c-.1-1.4-2-1.8-1.9-3.2l-1-1.2c1 .7 2.5.3 3.7.4-.4 1.3-.4 2.8-.8 4m-13.5 1.5c.3 0 .3.8 1 .8.4.3.3.8.5 1.2-.1.2-.3.1-.5.1-.2-1-1.8-.9-1-2.1m5.3 8.7c1.6.2 1.4-1.7 1.9-2.6 0-.5 0-1 .4-1.3 0-.7-.1-1.5-.5-2.1-.7-.3-1.6 0-1.8.7-.2.2-.1.5-.4.7-.4-.2-1.2.6-1.4-.1 1.8.5 1.3-2 3.1-1.5.5-.7 1.2-1.4 1.3-2.2 0 .3.1.8.5.8 1 .1.7-1.5 1.9-.7 1 .2 1.8-.4 2.8-.3-.7 3.2-2.5 5.6-4.5 8.2-.3-.5-.2-1.4-.8-1.5-.5.6-.8 1.3-.9 2-.8.6-2.2.3-3.2.5-1-.9-2.4-.9-3.6-1.4v-.4c1.6.2 3.5.6 5.2 1.2m3.5 9.5c-1-1 .6-1.9 1-2.7-.1-1.8-4.4-1.9-1.5-3.9v-.1c.7 1.4 2.8 2.2 2.8 3.9.3.5.9.7 1.4.3l-4 3.4c.2-.3.6-.5.3-.9m7.4-21.5c0-.8.4-1.5.2-2.3 1.9.3 4.1.2 6.1.1-.7 1.5-.5 3.7-.9 5.5-1.2 5.3-3.7 10.2-7.6 14.4-.1-1-.2-3.1-1.7-3.5-.2-.1-.3.2-.5.3v.5c-.8-.2-1.3-1.2-2-1.6h.3c2.7-3 4.6-6.5 5.6-10.3.4.2.8.2 1.1-.1.5-1.3-1.4-1.7-.6-3m-3.3-11.3c.2 1.3 1.4 2.7-.1 3.8-.2.3-.5.5-.9.4-.3-.7.5-.9.4-1.7.3-.2.8-.5.5-.9-.7-.1-.9-1.2-1.6-1.2-.7-.2-1.3.3-1.7.6-.1-.2-.2-.3-.4-.5.2-.3.6-.6.3-.9-.7-.4-.8-1.3-1.6-1.7-1.4-.2-2.5 0-3.8-.5-1.3-.3-.9 1.2-1.4 1.7 0 .1-.3-.2-.5-.5 1.7-2 4.1-4.2 5.8-6.3.9 1.4 2.7 2.6 2.7 4.3-.3.2-.5.6-.6 1 1.1.9 2.3 1.2 2.9 2.4m-16.3-3.1c-.2-.2-.2-.8-.7-.6-.5.7-1.4.9-1.9 1.7l-1.6-.6-.2-4.2c3 .5 5.7 1.5 8.2 3.1-.3.3-1.1.7-1.2 1.2.3.1.5.5.9.2-.5 1.6-2.7 1.4-3 3-1.2 1.3-1.9-1.5-3.1-.3h-.5c1.4-.8 3.5-1.6 3.1-3.5m-6.8 26.3c.1-.4.8-.2 1-.7.9.1.9-1 1.4-1.4.6.1 1.3-1 1.7-.1.9-.4 1.5 1.8 1.8.1.5.2 1 .9 1.5.4.4-.3.1-.7-.1-.9.5.2 1.1.9 1.6.3.2-.5.6-.5 1-.7.5.2.3.9.1 1.3-.7.9-1.9 1.7-3.1 1.9-.2.4-.2 1-.8 1-.5-.8-2.1.2-2-1.2-.8.1-1.8-.3-2.5.3-.6 0-1.2.2-1.6-.3m-25.6 13.4 4.3-4.4c5.8 5.7 13.3 8.8 21.5 9l.1-.1c-.3 1.9-.1 3.9-.2 5.8l.3.5c-9.9-.7-18.7-4.2-26-10.8m2.2-27.4c-.3.8-.3 1.7.1 2.5-.2-.2-.4-.4-.6-.5-1.3-.1-1.4 1.5-2.6 1.6-.8 1.2-1 2.7-1.2 4-.5 0-.2.6-.6.9-.2-2.7-1-5.4-1.2-8.2l-.2-.3c2.1.2 4.4.2 6.3 0m6.4-18.2c-4.1 4.3-6.2 9.8-6.6 15.8l.2.3c-1.9-.2-4.1 0-6.1-.1.5-7.6 3.2-14.3 8.2-19.9v-.4c1.2 1.4 2.7 2.9 4.3 4.3m3.8 7.5c-1.1.6-1.5 1.8-2.8 2-.7.3.2 1-.7 1.2-1.9-.1-2.1 2.1-2.7 3.3 0 .7-.1 1.4.3 1.9l-2.5.1c.6-3.2 1-6.4 2.5-9.2.9-1.9 2.2-3.7 3.5-5.3 1.6 1.5 2.8 3 4.6 4.3-.9.1-1.1 1.6-2.2 1.7m8.4 29.4c.7 1.1 1.2 2.5 2.7 2.7-4-.7-8.3-2.7-11.7-5.6h-.3c1.5-1.2 2.9-2.7 4.2-4.2 1.8 2.1 4.3 3.2 6.7 4 .5-.1.9-.2 1.4-.3-1 .1-1.7.6-2.2 1.4.1.9-1.2 1.1-.8 2m-13.2-18.7c.4-.3 1.2.3 1.3-.5.1-.9-1.4-2.2.1-2.7.6 0 1.5-.1 1.6.7.3 1-.2 2.4.1 3.2l-.9.5c-.3-.2-.5-.8-1-.7-.5.4.2.7.1 1.1 0 .3-.1.7-.1 1-.3 0-.7-.2-.9.2 0 .7.7.8 1 1.1.7-.3.6-1.3.7-2l.7.4c.5 2.9 2 5.7 3.8 7.8l-5.2 5.3c0-.4-.7-.2-.3-.6.3-.2.8-.3.8-.8 0-1-.3-1.9-.9-2.5-.2-1.4 0-2.9-.7-4 .2-1.5-.6-2.7-1.7-3.8.4-.8-.5-1.2-.2-2 .9-.2 1.9-.5 1.7-1.7m-3 4.1c.3-1.5-.2-2.9-.6-4.3.6.3 1.2.3 1.9.2-.9.1-.5 1.5-1 2.2 1.1.6-.1 1.3-.3 1.9m21.3 25.8-.5-.3c-7.6-.3-14.2-3.6-19.9-8.5.7-.1 1.6 1.3 2.8.7 1.3-1 2.9-.4 4.2-1.2.3-.8-.5-.9-.5-1.5 4 3 8.7 5.1 13.8 4.8-.1 2-.2 4.2.1 6m-7.4-24.5c.3-.4.7-.9.8-1.4l.6.4c-.6 0-.9.8-1.4 1m2.7.4c.2.9 1.2 1 1.8 1.5 1 .3 2.1 1.2 3.3.6-.5.2 0 .8-.2 1.1-.1.3-.3.9-.1 1.4.2.3.4.3.5.7-.3.4-.9 0-1.3.3-.4.6-.4 1.3-.3 2-2.7-.4-5.2-1.7-7.3-3.3zm-4.2-.6c.2-.3-.3-.6-.1-1 .5.3.2 1.1.6 1.6.2.2 0 .4.1.7l-1.9 1.8c-1-1.7-2.1-3.4-2.6-5.3l-.3-.6c.4.6 1.6 0 1.7.9.5.4 1.1-.2 1 .7.3.7.9 1 1.5 1.2m8.7-31.4c-5.9.1-11.4 2.5-15.5 6.5-1.3-1.4-2.8-3.1-4.3-4.2 5.6-5 12.3-7.7 19.8-8.3-.1 2-.1 4.1 0 6m-37.9 26.2c2 .1 4.3.2 6.2-.1-.1 2.7.4 5.6 1.3 8-.6-.7-1.1-1.9-2.1-1-.4.2.1 1-.7.7-.2-.3-1-.6-1.4-.2-.7 1-1 2.1-.7 3.4.8.7.2 2.6 1.7 2.2.4.4.9 1.3 1.6 1.3l.4-.7c.4 1 1.4 1 1.9 1.9.9-.5.5.8 1 1 .6.3.8 1.4 1.7 1 .1-.1.2-.2.2-.3.2.8.9 1.7 1.9 1.9.8.7 1.3 1.5 2 2-1.5 1.2-3.1 2.9-4.6 4.4-6.3-7-9.9-15.6-10.4-25.5m-1.9 3.7c1.4 16 14.1 30.8 29.6 34.9 17 4.7 34.3-1.3 44.8-15.1 9.5-11.7 11.1-31.4 3.2-44.3-3.7-7.1-10.7-14-17.7-17.4-11.5-6.5-28.5-5.7-39.6 1.1-14.3 8.4-22.2 23.9-20.3 40.8"/><path d="m78.8 12.2-.2-1.2c-.3-.8-1.4-.4-1.9-.7-.3.1-.2.6-.1.8 1.1.1 1.1 1.8 2.2 1.1"/><path d="m61.7 7.8c1.7-.8 3.8.5 5.3-1.2-.4-1.2-2-1.2-3.1-1.4l-2.8 1.2c-.3.2-1.3-.3-1.1.5.5.4 1 .8 1.7.9"/><path d="m8.2 31.3c1.1-2.2 3.3-4.4 5.2-6 4.4-2.8 8.3-7.3 8.4-12.3-2.3 6-10 6.7-11.9 13.1h-.1c2.8-5.3 1.2-12.7 6.6-16.6-2.8.8-5.2 2.9-6.7 5.4-3.2 4.6-.6 11-1.5 16.4"/><path d="m16.6 16.6c4.9-3.4 6.2-9 11-12.6-3.7 1.5-7.7 2.7-10.4 6.1-2.1 2.8-2.8 6.1-3.9 9.3z"/><path d="m104.7 20.6c.4 1.7 1.4 3.2 1.5 4.9-2.2-6.4-9.6-7.1-12.3-13.1l.8 3.5c2.1 6.8 10.2 8.5 13.3 14.7-1-4.5.7-9.2-.6-13.6-1.1-3.8-4.2-7.1-8.1-8.2 4.2 2.7 3.9 7.7 5.4 11.8"/><path d="m9.7 60.5c-.4-1.8-.3-4.1-.1-6 1.6-6.5 4.2-12.7 3.8-19.8-1 5.1-5.6 8.8-6.1 14.1-.3 2.2.2 4.3.5 6.2-.5-1-1-2.1-1-3.3-.8-7-6.4-12.1-5.2-19.6-2 4.6-1.9 10.8-.4 15.6 1.2 5 6 8.5 8.5 12.8"/></g></svg>