<svg xmlns="http://www.w3.org/2000/svg"  viewBox="0 0 50 50" width="50px" height="50px"><path d="M 40.125 4.5 C 39.648438 4.589844 39.304688 5.011719 39.3125 5.5 C 39.3125 5.5 39.289063 7.042969 39 9.5625 C 38.996094 9.582031 39.003906 9.574219 39 9.59375 C 38.691406 11.855469 39.753906 13.671875 40.53125 14.65625 C 40.371094 14.503906 40.21875 14.394531 40.0625 14.3125 C 37.3125 8.832031 31.695313 5 25 5 C 18.292969 5 12.574219 8.835938 9.875 14.375 C 9.683594 14.519531 9.503906 14.679688 9.34375 14.875 C 8.574219 15.796875 8.320313 16.984375 8.15625 18.09375 C 8.074219 18.648438 8.039063 19.1875 8.03125 19.625 C 8.027344 19.761719 8.054688 19.878906 8.0625 20 C 4.945313 22.125 3 25.144531 3 28.3125 C 3 30.875 4.203125 33.175781 6.15625 35.0625 C 8.046875 36.886719 10.664063 38.328125 13.6875 39.40625 C 16.1875 42.8125 20.222656 45 25 45 C 29.613281 45 33.796875 42.734375 36.3125 39.3125 C 39.332031 38.28125 41.957031 36.851563 43.84375 35.03125 C 45.796875 33.144531 47 30.832031 47 28.3125 C 47 25.46875 45.464844 23.011719 43.1875 21 C 43.492188 21 43.777344 20.863281 43.96875 20.625 C 43.96875 20.625 44.65625 19.890625 44.90625 18.78125 C 45.800781 18.269531 48.074219 16.6875 48.875 13.21875 C 49.914063 8.832031 46.46875 5.75 46.46875 5.75 C 46.242188 5.539063 45.929688 5.449219 45.625 5.5 C 45.355469 5.550781 45.117188 5.707031 44.96875 5.9375 C 44.96875 5.9375 44.652344 6.417969 44.28125 7.0625 C 42.710938 5.230469 40.625 4.5625 40.625 4.5625 C 40.496094 4.515625 40.355469 4.492188 40.21875 4.5 C 40.1875 4.5 40.15625 4.5 40.125 4.5 Z M 25 7 C 30.183594 7 34.597656 9.566406 37.25 13.4375 C 37.238281 13.433594 37.230469 13.441406 37.21875 13.4375 C 35.722656 13.125 33.960938 12.90625 32.40625 12.90625 C 30.75 12.90625 29.355469 13.421875 28.15625 13.875 C 26.957031 14.328125 25.949219 14.6875 25 14.6875 C 24.035156 14.6875 23.046875 14.335938 21.875 13.90625 C 20.703125 13.476563 19.332031 13 17.6875 13 C 16.203125 13 14.527344 13.074219 13.03125 13.3125 C 12.957031 13.324219 12.886719 13.332031 12.8125 13.34375 C 15.457031 9.53125 19.875 7 25 7 Z M 41.1875 7.125 C 42.222656 7.71875 43.523438 8.707031 43.90625 10.78125 C 44.25 12.628906 43.722656 13.847656 43.125 14.75 C 43.078125 14.636719 43.0625 14.5625 43 14.4375 C 42.941406 14.34375 42.867188 14.257813 42.78125 14.1875 C 42.78125 14.1875 40.695313 11.988281 41 9.84375 C 41 9.832031 41 9.824219 41 9.8125 C 41.191406 8.164063 41.160156 7.847656 41.1875 7.125 Z M 45.9375 8.3125 C 46.636719 9.242188 47.4375 10.664063 46.9375 12.78125 C 46.472656 14.800781 45.484375 15.945313 44.71875 16.5625 C 44.679688 16.46875 44.636719 16.394531 44.59375 16.3125 C 45.511719 15.050781 46.359375 13.027344 45.875 10.40625 C 45.785156 9.921875 45.632813 9.476563 45.46875 9.0625 C 45.613281 8.78125 45.75 8.632813 45.9375 8.3125 Z M 32.40625 14.90625 C 33.753906 14.90625 35.433594 15.117188 36.8125 15.40625 C 37.5 15.550781 38.113281 15.722656 38.5625 15.875 C 38.628906 15.898438 38.660156 15.914063 38.71875 15.9375 C 38.863281 16.082031 39.046875 16.183594 39.25 16.21875 C 39.292969 16.3125 39.339844 16.445313 39.4375 16.71875 C 39.566406 17.082031 39.6875 17.519531 39.78125 17.96875 C 39.875 18.417969 39.949219 18.886719 39.96875 19.21875 C 39.980469 19.386719 39.949219 19.542969 39.9375 19.625 C 39.910156 19.652344 39.628906 20.027344 39.15625 20.375 C 38.648438 20.746094 37.996094 21.136719 37.34375 21.5 C 36.355469 22.050781 35.5625 22.40625 35.15625 22.59375 C 34.941406 22.359375 34.730469 22.121094 34.5 21.90625 C 36.023438 21.429688 37.09375 20.59375 37.09375 20.59375 C 37.476563 20.300781 37.59375 19.773438 37.375 19.34375 C 37.375 19.34375 35.5625 15.59375 32 15.59375 C 29.167969 15.59375 27.121094 17.601563 26.4375 18.375 C 25.96875 18.332031 25.484375 18.3125 25 18.3125 C 24.480469 18.3125 23.976563 18.347656 23.46875 18.40625 C 22.664063 17.53125 20.65625 15.6875 18 15.6875 C 14.4375 15.6875 12.625 19.4375 12.625 19.4375 C 12.386719 19.875 12.507813 20.421875 12.90625 20.71875 C 12.90625 20.71875 13.992188 21.566406 15.53125 22.03125 C 15.226563 22.308594 14.933594 22.605469 14.65625 22.90625 C 13.578125 22.421875 11.277344 21.273438 10.03125 19.875 C 10.027344 19.804688 10.03125 19.753906 10.03125 19.65625 C 10.035156 19.324219 10.054688 18.875 10.125 18.40625 C 10.261719 17.464844 10.644531 16.402344 10.875 16.125 C 10.910156 16.082031 10.992188 16.007813 11.125 15.9375 C 11.136719 15.925781 11.144531 15.917969 11.15625 15.90625 C 11.566406 15.695313 12.371094 15.4375 13.34375 15.28125 C 14.671875 15.070313 16.273438 15 17.6875 15 C 18.941406 15 20.035156 15.359375 21.1875 15.78125 C 22.339844 16.203125 23.5625 16.6875 25 16.6875 C 26.449219 16.6875 27.699219 16.195313 28.875 15.75 C 30.050781 15.304688 31.164063 14.90625 32.40625 14.90625 Z M 41.625 17 L 42.5625 17 C 42.730469 17.285156 43 17.660156 43 18 C 43 18.019531 43 18.042969 43 18.0625 C 42.96875 18.386719 42.71875 18.730469 42.5625 19 L 41.96875 19 C 41.9375 18.554688 41.851563 18.066406 41.75 17.5625 C 41.710938 17.375 41.667969 17.1875 41.625 17 Z M 32 17.59375 C 33.441406 17.59375 34.414063 18.71875 35 19.5 C 34.503906 19.761719 33.875 20.027344 33.21875 20.15625 C 33.269531 20.015625 33.3125 19.84375 33.3125 19.6875 C 33.3125 18.96875 32.71875 18.40625 32 18.40625 C 31.359375 18.40625 30.828125 18.859375 30.71875 19.46875 C 30.167969 19.230469 29.589844 19.007813 29 18.84375 C 29.816406 18.222656 30.914063 17.59375 32 17.59375 Z M 18 17.6875 C 19.066406 17.6875 20.15625 18.296875 20.96875 18.90625 C 20.382813 19.085938 19.832031 19.3125 19.28125 19.5625 C 19.214844 18.90625 18.671875 18.40625 18 18.40625 C 17.28125 18.40625 16.6875 18.96875 16.6875 19.6875 C 16.6875 19.882813 16.765625 20.082031 16.84375 20.25 C 16.164063 20.125 15.511719 19.863281 15 19.59375 C 15.585938 18.8125 16.558594 17.6875 18 17.6875 Z M 25 20.3125 C 27.375 20.3125 29.472656 20.90625 31.25 21.96875 C 31.324219 22.03125 31.410156 22.085938 31.5 22.125 C 32.832031 22.96875 33.980469 24.078125 34.875 25.4375 C 35.046875 25.785156 35.402344 26 35.789063 25.992188 C 36.175781 25.988281 36.523438 25.757813 36.683594 25.402344 C 36.84375 25.050781 36.78125 24.636719 36.53125 24.34375 C 36.503906 24.300781 36.46875 24.261719 36.4375 24.21875 C 36.933594 23.972656 37.617188 23.636719 38.3125 23.25 C 39.007813 22.863281 39.726563 22.421875 40.34375 21.96875 C 40.503906 21.851563 40.632813 21.742188 40.78125 21.625 C 43.402344 23.546875 45 25.832031 45 28.3125 C 45 30.195313 44.109375 31.980469 42.4375 33.59375 C 40.765625 35.207031 38.3125 36.601563 35.375 37.5625 C 35.171875 37.632813 34.996094 37.761719 34.875 37.9375 C 32.765625 40.960938 29.066406 43 25 43 C 20.703125 43 17.242188 41.070313 15.125 38.03125 C 15.003906 37.855469 14.828125 37.726563 14.625 37.65625 C 11.679688 36.640625 9.234375 35.238281 7.5625 33.625 C 5.890625 32.011719 5 30.25 5 28.3125 C 5 26.023438 6.433594 23.582031 9.03125 21.75 C 10.4375 23.109375 12.210938 24.050781 13.375 24.5625 C 13.230469 25.027344 13.441406 25.523438 13.871094 25.746094 C 14.300781 25.96875 14.828125 25.851563 15.125 25.46875 C 15.25 25.289063 15.394531 25.113281 15.53125 24.9375 C 15.566406 24.910156 15.597656 24.878906 15.625 24.84375 C 15.632813 24.832031 15.648438 24.824219 15.65625 24.8125 C 15.730469 24.738281 15.792969 24.65625 15.84375 24.5625 C 17.632813 22.476563 20.210938 20.976563 23.09375 20.5 C 23.234375 20.496094 23.371094 20.464844 23.5 20.40625 C 23.992188 20.34375 24.492188 20.3125 25 20.3125 Z M 34 29.96875 C 33.238281 29.933594 32.511719 30.28125 31.6875 30.90625 C 25.921875 35.410156 16.4375 31.09375 16.4375 31.09375 C 15.9375 30.851563 15.335938 31.0625 15.09375 31.5625 C 14.851563 32.0625 15.0625 32.664063 15.5625 32.90625 C 15.5625 32.90625 25.871094 37.996094 32.90625 32.5 C 33.496094 32.054688 33.792969 32.007813 33.84375 32 C 33.953125 32.207031 34 32.9375 34 32.9375 C 33.964844 33.488281 34.386719 33.964844 34.9375 34 C 35.488281 34.035156 35.964844 33.613281 36 33.0625 C 36 33.0625 36.140625 32.054688 35.625 31.0625 C 35.367188 30.566406 34.761719 30.003906 34 29.96875 Z"/></svg>