<svg xmlns="http://www.w3.org/2000/svg" xmlns:xlink="http://www.w3.org/1999/xlink" width="200" zoomAndPan="magnify" viewBox="0 0 150 42.75" height="57" preserveAspectRatio="xMidYMid meet" version="1.0"><defs><g/><clipPath id="3be02e0329"><path d="M 6.835938 4.054688 L 41.230469 4.054688 L 41.230469 38.449219 L 6.835938 38.449219 Z M 6.835938 4.054688 " clip-rule="nonzero"/></clipPath><clipPath id="7fe679c453"><path d="M 24.035156 4.054688 C 14.535156 4.054688 6.835938 11.753906 6.835938 21.25 C 6.835938 30.75 14.535156 38.449219 24.035156 38.449219 C 33.53125 38.449219 41.230469 30.75 41.230469 21.25 C 41.230469 11.753906 33.53125 4.054688 24.035156 4.054688 Z M 24.035156 4.054688 " clip-rule="nonzero"/></clipPath><clipPath id="36af62d193"><path d="M 12.4375 15.050781 L 25.859375 15.050781 L 25.859375 29.964844 L 12.4375 29.964844 Z M 12.4375 15.050781 " clip-rule="nonzero"/></clipPath><clipPath id="0b43da565c"><path d="M 21.027344 12.125 L 35.941406 12.125 L 35.941406 30.019531 L 21.027344 30.019531 Z M 21.027344 12.125 " clip-rule="nonzero"/></clipPath></defs><g clip-path="url(#3be02e0329)"><g clip-path="url(#7fe679c453)"><path fill="#8eb826" d="M 6.835938 4.054688 L 41.230469 4.054688 L 41.230469 38.449219 L 6.835938 38.449219 Z M 6.835938 4.054688 " fill-opacity="1" fill-rule="nonzero"/></g></g><g clip-path="url(#36af62d193)"><path fill="#000000" d="M 25.785156 20.1875 L 23.011719 16.402344 C 23.011719 16.398438 23.007812 16.394531 23.003906 16.390625 C 22.988281 16.371094 22.972656 16.355469 22.953125 16.339844 C 22.953125 16.339844 22.953125 16.335938 22.949219 16.335938 C 22.886719 16.28125 22.800781 16.246094 22.710938 16.246094 L 19.523438 16.246094 L 19.523438 15.429688 C 19.523438 15.21875 19.355469 15.050781 19.148438 15.050781 L 17.367188 15.050781 C 17.160156 15.050781 16.992188 15.21875 16.992188 15.429688 L 16.992188 16.246094 L 15.585938 16.246094 C 15.464844 16.246094 15.355469 16.304688 15.285156 16.402344 L 12.511719 20.1875 C 12.511719 20.191406 12.511719 20.191406 12.511719 20.195312 C 12.492188 20.222656 12.476562 20.253906 12.464844 20.285156 C 12.460938 20.292969 12.457031 20.300781 12.457031 20.308594 C 12.445312 20.339844 12.441406 20.375 12.441406 20.414062 L 12.441406 29.585938 C 12.441406 29.792969 12.609375 29.964844 12.816406 29.964844 L 19.742188 29.964844 C 19.777344 29.964844 19.808594 29.957031 19.839844 29.949219 C 19.871094 29.957031 19.90625 29.964844 19.941406 29.964844 L 25.480469 29.964844 C 25.6875 29.964844 25.855469 29.792969 25.855469 29.585938 L 25.855469 20.414062 C 25.855469 20.332031 25.832031 20.253906 25.785156 20.1875 Z M 17.742188 15.808594 L 18.773438 15.808594 L 18.773438 16.246094 L 17.742188 16.246094 Z M 19.5625 29.207031 L 16.882812 29.207031 C 16.925781 29.144531 16.953125 29.070312 16.953125 28.988281 L 16.953125 26.792969 C 16.953125 26.585938 16.785156 26.414062 16.574219 26.414062 L 16.179688 26.414062 C 15.972656 26.414062 15.804688 26.585938 15.804688 26.792969 L 15.804688 28.988281 C 15.804688 29.070312 15.832031 29.144531 15.875 29.207031 L 13.191406 29.207031 L 13.191406 20.792969 L 19.5625 20.792969 Z M 25.105469 29.207031 L 20.316406 29.207031 L 20.316406 20.539062 L 22.710938 17.265625 L 25.105469 20.539062 Z M 21.917969 21.828125 L 21.523438 21.828125 C 21.316406 21.828125 21.148438 22 21.148438 22.207031 L 21.148438 23.804688 C 21.148438 24.011719 21.316406 24.183594 21.523438 24.183594 L 21.917969 24.183594 C 22.125 24.183594 22.292969 24.011719 22.292969 23.804688 L 22.292969 22.207031 C 22.292969 22 22.125 21.828125 21.917969 21.828125 Z M 23.699219 24.183594 L 24.09375 24.183594 C 24.304688 24.183594 24.472656 24.011719 24.472656 23.804688 L 24.472656 22.207031 C 24.472656 22 24.304688 21.828125 24.09375 21.828125 L 23.699219 21.828125 C 23.492188 21.828125 23.324219 22 23.324219 22.207031 L 23.324219 23.804688 C 23.324219 24.011719 23.492188 24.183594 23.699219 24.183594 Z M 21.917969 25.417969 L 21.523438 25.417969 C 21.316406 25.417969 21.148438 25.585938 21.148438 25.796875 L 21.148438 27.390625 C 21.148438 27.601562 21.316406 27.769531 21.523438 27.769531 L 21.917969 27.769531 C 22.125 27.769531 22.292969 27.601562 22.292969 27.390625 L 22.292969 25.796875 C 22.292969 25.585938 22.125 25.417969 21.917969 25.417969 Z M 23.699219 27.769531 L 24.09375 27.769531 C 24.304688 27.769531 24.472656 27.601562 24.472656 27.390625 L 24.472656 25.796875 C 24.472656 25.585938 24.304688 25.417969 24.09375 25.417969 L 23.699219 25.417969 C 23.492188 25.417969 23.324219 25.585938 23.324219 25.796875 L 23.324219 27.390625 C 23.324219 27.601562 23.492188 27.769531 23.699219 27.769531 Z M 16.179688 24.183594 L 16.574219 24.183594 C 16.785156 24.183594 16.953125 24.011719 16.953125 23.804688 L 16.953125 22.207031 C 16.953125 22 16.785156 21.828125 16.574219 21.828125 L 16.179688 21.828125 C 15.972656 21.828125 15.804688 22 15.804688 22.207031 L 15.804688 23.804688 C 15.804688 24.011719 15.972656 24.183594 16.179688 24.183594 Z M 17.960938 24.183594 L 18.355469 24.183594 C 18.566406 24.183594 18.734375 24.011719 18.734375 23.804688 L 18.734375 22.207031 C 18.734375 22 18.5625 21.828125 18.355469 21.828125 L 17.960938 21.828125 C 17.753906 21.828125 17.585938 22 17.585938 22.207031 L 17.585938 23.804688 C 17.585938 24.011719 17.753906 24.183594 17.960938 24.183594 Z M 17.960938 27.769531 L 18.355469 27.769531 C 18.566406 27.769531 18.734375 27.601562 18.734375 27.390625 L 18.734375 25.796875 C 18.734375 25.585938 18.5625 25.417969 18.355469 25.417969 L 17.960938 25.417969 C 17.753906 25.417969 17.585938 25.585938 17.585938 25.796875 L 17.585938 27.390625 C 17.585938 27.601562 17.753906 27.769531 17.960938 27.769531 Z M 14.398438 24.183594 L 14.792969 24.183594 C 15.003906 24.183594 15.171875 24.011719 15.171875 23.804688 L 15.171875 22.207031 C 15.171875 22 15.003906 21.828125 14.792969 21.828125 L 14.398438 21.828125 C 14.191406 21.828125 14.023438 22 14.023438 22.207031 L 14.023438 23.804688 C 14.023438 24.011719 14.191406 24.183594 14.398438 24.183594 Z M 14.398438 27.769531 L 14.792969 27.769531 C 15.003906 27.769531 15.171875 27.601562 15.171875 27.390625 L 15.171875 25.796875 C 15.171875 25.585938 15.003906 25.417969 14.792969 25.417969 L 14.398438 25.417969 C 14.191406 25.417969 14.023438 25.585938 14.023438 25.796875 L 14.023438 27.390625 C 14.023438 27.601562 14.191406 27.769531 14.398438 27.769531 Z M 14.398438 27.769531 " fill-opacity="1" fill-rule="nonzero"/></g><path stroke-linecap="butt" transform="matrix(0, 0.74564, -0.74564, 0, 30.396741, 12.78167)" fill="none" stroke-linejoin="miter" d="M -0.000562657 6.499065 L 23.600193 6.499065 " stroke="#8eb826" stroke-width="13" stroke-opacity="1" stroke-miterlimit="4"/><g clip-path="url(#0b43da565c)"><path fill="#000000" d="M 35.789062 16.019531 L 32.710938 13.488281 C 32.707031 13.480469 32.699219 13.476562 32.691406 13.472656 C 32.683594 13.464844 32.671875 13.460938 32.660156 13.453125 C 32.648438 13.445312 32.636719 13.4375 32.625 13.433594 C 32.613281 13.429688 32.601562 13.421875 32.59375 13.417969 C 32.578125 13.414062 32.5625 13.410156 32.546875 13.40625 C 32.535156 13.402344 32.527344 13.398438 32.519531 13.398438 C 32.492188 13.394531 32.464844 13.390625 32.4375 13.390625 L 28.679688 13.390625 L 28.679688 12.523438 C 28.679688 12.304688 28.496094 12.125 28.265625 12.125 L 26.285156 12.125 C 26.054688 12.125 25.867188 12.304688 25.867188 12.523438 L 25.867188 13.390625 L 24.527344 13.390625 C 24.429688 13.390625 24.332031 13.425781 24.257812 13.488281 L 21.179688 16.019531 C 21.085938 16.09375 21.03125 16.207031 21.03125 16.324219 L 21.03125 29.617188 C 21.03125 29.839844 21.21875 30.019531 21.449219 30.019531 L 29.144531 30.019531 C 29.179688 30.019531 29.21875 30.011719 29.253906 30.003906 C 29.289062 30.011719 29.324219 30.019531 29.363281 30.019531 L 35.515625 30.019531 C 35.746094 30.019531 35.933594 29.839844 35.933594 29.617188 L 35.933594 16.324219 C 35.933594 16.207031 35.882812 16.09375 35.789062 16.019531 Z M 26.703125 12.925781 L 27.847656 12.925781 L 27.847656 13.390625 L 26.703125 13.390625 Z M 28.945312 29.21875 L 25.964844 29.21875 C 26.015625 29.152344 26.042969 29.074219 26.042969 28.984375 L 26.042969 26.664062 C 26.042969 26.441406 25.855469 26.261719 25.625 26.261719 L 25.1875 26.261719 C 24.957031 26.261719 24.769531 26.441406 24.769531 26.664062 L 24.769531 28.984375 C 24.769531 29.074219 24.796875 29.152344 24.847656 29.21875 L 21.867188 29.21875 L 21.867188 16.9375 L 28.945312 16.9375 Z M 35.097656 29.21875 L 29.78125 29.21875 L 29.78125 16.507812 L 32.441406 14.320312 L 35.097656 16.507812 Z M 31.5625 17.609375 L 31.121094 17.609375 C 30.890625 17.609375 30.703125 17.789062 30.703125 18.011719 L 30.703125 19.699219 C 30.703125 19.921875 30.890625 20.101562 31.121094 20.101562 L 31.5625 20.101562 C 31.792969 20.101562 31.976562 19.921875 31.976562 19.699219 L 31.976562 18.011719 C 31.976562 17.789062 31.792969 17.609375 31.5625 17.609375 Z M 33.539062 20.101562 L 33.976562 20.101562 C 34.210938 20.101562 34.394531 19.921875 34.394531 19.699219 L 34.394531 18.011719 C 34.394531 17.789062 34.210938 17.609375 33.976562 17.609375 L 33.539062 17.609375 C 33.308594 17.609375 33.121094 17.789062 33.121094 18.011719 L 33.121094 19.699219 C 33.121094 19.921875 33.308594 20.101562 33.539062 20.101562 Z M 31.5625 21.410156 L 31.121094 21.410156 C 30.890625 21.410156 30.703125 21.589844 30.703125 21.8125 L 30.703125 23.5 C 30.703125 23.71875 30.890625 23.898438 31.121094 23.898438 L 31.5625 23.898438 C 31.792969 23.898438 31.976562 23.71875 31.976562 23.5 L 31.976562 21.8125 C 31.976562 21.589844 31.792969 21.410156 31.5625 21.410156 Z M 33.539062 23.898438 L 33.976562 23.898438 C 34.210938 23.898438 34.394531 23.71875 34.394531 23.5 L 34.394531 21.8125 C 34.394531 21.589844 34.210938 21.410156 33.976562 21.410156 L 33.539062 21.410156 C 33.308594 21.410156 33.121094 21.589844 33.121094 21.8125 L 33.121094 23.5 C 33.121094 23.71875 33.308594 23.898438 33.539062 23.898438 Z M 31.5625 25.207031 L 31.121094 25.207031 C 30.890625 25.207031 30.703125 25.386719 30.703125 25.609375 L 30.703125 27.296875 C 30.703125 27.519531 30.890625 27.699219 31.121094 27.699219 L 31.5625 27.699219 C 31.792969 27.699219 31.976562 27.519531 31.976562 27.296875 L 31.976562 25.609375 C 31.976562 25.386719 31.792969 25.207031 31.5625 25.207031 Z M 33.539062 27.699219 L 33.976562 27.699219 C 34.210938 27.699219 34.394531 27.519531 34.394531 27.296875 L 34.394531 25.609375 C 34.394531 25.386719 34.210938 25.207031 33.976562 25.207031 L 33.539062 25.207031 C 33.308594 25.207031 33.121094 25.386719 33.121094 25.609375 L 33.121094 27.296875 C 33.121094 27.519531 33.308594 27.699219 33.539062 27.699219 Z M 25.1875 20.101562 L 25.625 20.101562 C 25.855469 20.101562 26.042969 19.921875 26.042969 19.699219 L 26.042969 18.011719 C 26.042969 17.789062 25.855469 17.609375 25.625 17.609375 L 25.1875 17.609375 C 24.957031 17.609375 24.769531 17.789062 24.769531 18.011719 L 24.769531 19.699219 C 24.769531 19.921875 24.957031 20.101562 25.1875 20.101562 Z M 27.164062 20.101562 L 27.605469 20.101562 C 27.835938 20.101562 28.023438 19.921875 28.023438 19.699219 L 28.023438 18.011719 C 28.023438 17.789062 27.835938 17.609375 27.605469 17.609375 L 27.164062 17.609375 C 26.933594 17.609375 26.746094 17.789062 26.746094 18.011719 L 26.746094 19.699219 C 26.746094 19.921875 26.933594 20.101562 27.164062 20.101562 Z M 25.1875 23.898438 L 25.625 23.898438 C 25.855469 23.898438 26.042969 23.71875 26.042969 23.5 L 26.042969 21.8125 C 26.042969 21.589844 25.855469 21.410156 25.625 21.410156 L 25.1875 21.410156 C 24.957031 21.410156 24.769531 21.589844 24.769531 21.8125 L 24.769531 23.5 C 24.769531 23.71875 24.957031 23.898438 25.1875 23.898438 Z M 27.164062 23.898438 L 27.605469 23.898438 C 27.835938 23.898438 28.023438 23.71875 28.023438 23.5 L 28.023438 21.8125 C 28.023438 21.589844 27.835938 21.410156 27.605469 21.410156 L 27.164062 21.410156 C 26.933594 21.410156 26.746094 21.589844 26.746094 21.8125 L 26.746094 23.5 C 26.746094 23.71875 26.933594 23.898438 27.164062 23.898438 Z M 27.164062 27.699219 L 27.605469 27.699219 C 27.835938 27.699219 28.023438 27.519531 28.023438 27.296875 L 28.023438 25.609375 C 28.023438 25.386719 27.835938 25.207031 27.605469 25.207031 L 27.164062 25.207031 C 26.933594 25.207031 26.746094 25.386719 26.746094 25.609375 L 26.746094 27.296875 C 26.746094 27.519531 26.933594 27.699219 27.164062 27.699219 Z M 23.207031 20.101562 L 23.648438 20.101562 C 23.878906 20.101562 24.066406 19.921875 24.066406 19.699219 L 24.066406 18.011719 C 24.066406 17.789062 23.878906 17.609375 23.648438 17.609375 L 23.207031 17.609375 C 22.976562 17.609375 22.792969 17.789062 22.792969 18.011719 L 22.792969 19.699219 C 22.792969 19.921875 22.976562 20.101562 23.207031 20.101562 Z M 23.207031 23.898438 L 23.648438 23.898438 C 23.878906 23.898438 24.066406 23.71875 24.066406 23.5 L 24.066406 21.8125 C 24.066406 21.589844 23.878906 21.410156 23.648438 21.410156 L 23.207031 21.410156 C 22.976562 21.410156 22.792969 21.589844 22.792969 21.8125 L 22.792969 23.5 C 22.792969 23.71875 22.976562 23.898438 23.207031 23.898438 Z M 23.207031 27.699219 L 23.648438 27.699219 C 23.878906 27.699219 24.066406 27.519531 24.066406 27.296875 L 24.066406 25.609375 C 24.066406 25.386719 23.878906 25.207031 23.648438 25.207031 L 23.207031 25.207031 C 22.976562 25.207031 22.792969 25.386719 22.792969 25.609375 L 22.792969 27.296875 C 22.792969 27.519531 22.976562 27.699219 23.207031 27.699219 Z M 23.207031 27.699219 " fill-opacity="1" fill-rule="nonzero"/></g><g fill="#8eb826" fill-opacity="1"><g transform="translate(46.293179, 29.500962)"><g><path d="M 1.640625 0 L 1.640625 -13.0625 L 4.40625 -13.0625 L 4.40625 -2.28125 L 9.71875 -2.28125 L 9.71875 0 Z M 1.640625 0 "/></g></g></g><g fill="#8eb826" fill-opacity="1"><g transform="translate(56.043789, 29.500962)"><g><path d="M 1.3125 -12.5625 C 1.3125 -13.457031 1.804688 -13.90625 2.796875 -13.90625 C 3.785156 -13.90625 4.28125 -13.457031 4.28125 -12.5625 C 4.28125 -12.144531 4.15625 -11.816406 3.90625 -11.578125 C 3.65625 -11.347656 3.285156 -11.234375 2.796875 -11.234375 C 1.804688 -11.234375 1.3125 -11.675781 1.3125 -12.5625 Z M 4.15625 0 L 1.421875 0 L 1.421875 -9.984375 L 4.15625 -9.984375 Z M 4.15625 0 "/></g></g></g><g fill="#8eb826" fill-opacity="1"><g transform="translate(61.041608, 29.500962)"><g><path d="M 3.46875 -5.09375 L 0.265625 -9.984375 L 3.34375 -9.984375 L 5.28125 -6.8125 L 7.25 -9.984375 L 10.34375 -9.984375 L 7.078125 -5.09375 L 10.484375 0 L 7.390625 0 L 5.28125 -3.421875 L 3.1875 0 L 0.09375 0 Z M 3.46875 -5.09375 "/></g></g></g><g fill="#8eb826" fill-opacity="1"><g transform="translate(71.033431, 29.500962)"><g><path d="M 3.59375 -5.015625 C 3.59375 -4.023438 3.753906 -3.273438 4.078125 -2.765625 C 4.410156 -2.265625 4.941406 -2.015625 5.671875 -2.015625 C 6.398438 -2.015625 6.921875 -2.265625 7.234375 -2.765625 C 7.554688 -3.265625 7.71875 -4.015625 7.71875 -5.015625 C 7.71875 -6.003906 7.554688 -6.742188 7.234375 -7.234375 C 6.910156 -7.734375 6.382812 -7.984375 5.65625 -7.984375 C 4.925781 -7.984375 4.398438 -7.734375 4.078125 -7.234375 C 3.753906 -6.742188 3.59375 -6.003906 3.59375 -5.015625 Z M 10.5 -5.015625 C 10.5 -3.390625 10.070312 -2.117188 9.21875 -1.203125 C 8.363281 -0.285156 7.171875 0.171875 5.640625 0.171875 C 4.679688 0.171875 3.832031 -0.0351562 3.09375 -0.453125 C 2.363281 -0.867188 1.800781 -1.46875 1.40625 -2.25 C 1.019531 -3.039062 0.828125 -3.960938 0.828125 -5.015625 C 0.828125 -6.640625 1.25 -7.90625 2.09375 -8.8125 C 2.945312 -9.71875 4.144531 -10.171875 5.6875 -10.171875 C 6.644531 -10.171875 7.488281 -9.960938 8.21875 -9.546875 C 8.957031 -9.128906 9.519531 -8.53125 9.90625 -7.75 C 10.300781 -6.96875 10.5 -6.054688 10.5 -5.015625 Z M 10.5 -5.015625 "/></g></g></g><g fill="#8eb826" fill-opacity="1"><g transform="translate(81.775695, 29.500962)"><g/></g></g><g fill="#8eb826" fill-opacity="1"><g transform="translate(85.94267, 29.500962)"><g><path d="M 8.375 0 L 0.484375 0 L 0.484375 -1.609375 L 5.125 -7.90625 L 0.765625 -7.90625 L 0.765625 -9.984375 L 8.21875 -9.984375 L 8.21875 -8.21875 L 3.71875 -2.078125 L 8.375 -2.078125 Z M 8.375 0 "/></g></g></g><g fill="#8eb826" fill-opacity="1"><g transform="translate(94.281735, 29.500962)"><g><path d="M 5.5625 -8.234375 C 4.988281 -8.234375 4.535156 -8.050781 4.203125 -7.6875 C 3.878906 -7.320312 3.691406 -6.800781 3.640625 -6.125 L 7.46875 -6.125 C 7.457031 -6.800781 7.28125 -7.320312 6.9375 -7.6875 C 6.601562 -8.050781 6.144531 -8.234375 5.5625 -8.234375 Z M 5.953125 0.171875 C 4.335938 0.171875 3.078125 -0.269531 2.171875 -1.15625 C 1.273438 -2.039062 0.828125 -3.296875 0.828125 -4.921875 C 0.828125 -6.597656 1.242188 -7.890625 2.078125 -8.796875 C 2.910156 -9.710938 4.066406 -10.171875 5.546875 -10.171875 C 6.960938 -10.171875 8.0625 -9.769531 8.84375 -8.96875 C 9.632812 -8.164062 10.03125 -7.054688 10.03125 -5.640625 L 10.03125 -4.3125 L 3.578125 -4.3125 C 3.609375 -3.539062 3.835938 -2.9375 4.265625 -2.5 C 4.691406 -2.0625 5.296875 -1.84375 6.078125 -1.84375 C 6.679688 -1.84375 7.25 -1.90625 7.78125 -2.03125 C 8.3125 -2.15625 8.875 -2.359375 9.46875 -2.640625 L 9.46875 -0.53125 C 8.988281 -0.289062 8.476562 -0.113281 7.9375 0 C 7.394531 0.113281 6.734375 0.171875 5.953125 0.171875 Z M 5.953125 0.171875 "/></g></g></g><g fill="#8eb826" fill-opacity="1"><g transform="translate(104.505835, 29.500962)"><g><path d="M 7 -10.171875 C 7.375 -10.171875 7.679688 -10.144531 7.921875 -10.09375 L 7.71875 -7.546875 C 7.5 -7.597656 7.234375 -7.625 6.921875 -7.625 C 6.046875 -7.625 5.363281 -7.398438 4.875 -6.953125 C 4.394531 -6.515625 4.15625 -5.890625 4.15625 -5.078125 L 4.15625 0 L 1.421875 0 L 1.421875 -9.984375 L 3.5 -9.984375 L 3.890625 -8.3125 L 4.03125 -8.3125 C 4.34375 -8.875 4.757812 -9.320312 5.28125 -9.65625 C 5.8125 -10 6.382812 -10.171875 7 -10.171875 Z M 7 -10.171875 "/></g></g></g><g fill="#8eb826" fill-opacity="1"><g transform="translate(112.228466, 29.500962)"><g><path d="M 3.59375 -5.015625 C 3.59375 -4.023438 3.753906 -3.273438 4.078125 -2.765625 C 4.410156 -2.265625 4.941406 -2.015625 5.671875 -2.015625 C 6.398438 -2.015625 6.921875 -2.265625 7.234375 -2.765625 C 7.554688 -3.265625 7.71875 -4.015625 7.71875 -5.015625 C 7.71875 -6.003906 7.554688 -6.742188 7.234375 -7.234375 C 6.910156 -7.734375 6.382812 -7.984375 5.65625 -7.984375 C 4.925781 -7.984375 4.398438 -7.734375 4.078125 -7.234375 C 3.753906 -6.742188 3.59375 -6.003906 3.59375 -5.015625 Z M 10.5 -5.015625 C 10.5 -3.390625 10.070312 -2.117188 9.21875 -1.203125 C 8.363281 -0.285156 7.171875 0.171875 5.640625 0.171875 C 4.679688 0.171875 3.832031 -0.0351562 3.09375 -0.453125 C 2.363281 -0.867188 1.800781 -1.46875 1.40625 -2.25 C 1.019531 -3.039062 0.828125 -3.960938 0.828125 -5.015625 C 0.828125 -6.640625 1.25 -7.90625 2.09375 -8.8125 C 2.945312 -9.71875 4.144531 -10.171875 5.6875 -10.171875 C 6.644531 -10.171875 7.488281 -9.960938 8.21875 -9.546875 C 8.957031 -9.128906 9.519531 -8.53125 9.90625 -7.75 C 10.300781 -6.96875 10.5 -6.054688 10.5 -5.015625 Z M 10.5 -5.015625 "/></g></g></g></svg>