<svg xmlns="http://www.w3.org/2000/svg" xmlns:xlink="http://www.w3.org/1999/xlink" width="282" zoomAndPan="magnify" viewBox="0 0 211.5 42.75" height="57" preserveAspectRatio="xMidYMid meet" version="1.0"><defs><g/><clipPath id="15c6217011"><path d="M 15.59375 0.757812 L 56.582031 0.757812 L 56.582031 41.742188 L 15.59375 41.742188 Z M 15.59375 0.757812 " clip-rule="nonzero"/></clipPath><clipPath id="16be38c78f"><path d="M 36.085938 0.757812 C 24.769531 0.757812 15.59375 9.933594 15.59375 21.25 C 15.59375 32.570312 24.769531 41.742188 36.085938 41.742188 C 47.40625 41.742188 56.582031 32.570312 56.582031 21.25 C 56.582031 9.933594 47.40625 0.757812 36.085938 0.757812 Z M 36.085938 0.757812 " clip-rule="nonzero"/></clipPath><clipPath id="55d391ffa1"><path d="M 22.269531 13.863281 L 37.925781 13.863281 L 37.925781 31.757812 L 22.269531 31.757812 Z M 22.269531 13.863281 " clip-rule="nonzero"/></clipPath><clipPath id="613cadbfc1"><path d="M 32.503906 10.375 L 49.65625 10.375 L 49.65625 32 L 32.503906 32 Z M 32.503906 10.375 " clip-rule="nonzero"/></clipPath></defs><g clip-path="url(#15c6217011)"><g clip-path="url(#16be38c78f)"><path fill="#8eb826" d="M 15.59375 0.757812 L 56.582031 0.757812 L 56.582031 41.742188 L 15.59375 41.742188 Z M 15.59375 0.757812 " fill-opacity="1" fill-rule="nonzero"/></g></g><g clip-path="url(#55d391ffa1)"><path fill="#000000" d="M 37.835938 20.027344 L 34.605469 15.484375 C 34.601562 15.476562 34.597656 15.476562 34.59375 15.472656 C 34.574219 15.449219 34.558594 15.425781 34.535156 15.410156 C 34.535156 15.40625 34.53125 15.40625 34.53125 15.40625 C 34.457031 15.339844 34.359375 15.296875 34.25 15.296875 L 30.535156 15.296875 L 30.535156 14.316406 C 30.535156 14.066406 30.339844 13.863281 30.097656 13.863281 L 28.019531 13.863281 C 27.777344 13.863281 27.582031 14.066406 27.582031 14.316406 L 27.582031 15.296875 L 25.945312 15.296875 C 25.804688 15.296875 25.671875 15.367188 25.589844 15.484375 L 22.359375 20.027344 C 22.359375 20.03125 22.359375 20.03125 22.355469 20.035156 C 22.332031 20.066406 22.316406 20.105469 22.300781 20.144531 C 22.296875 20.152344 22.296875 20.160156 22.292969 20.171875 C 22.28125 20.210938 22.273438 20.253906 22.273438 20.296875 L 22.273438 31.304688 C 22.273438 31.554688 22.472656 31.757812 22.710938 31.757812 L 30.789062 31.757812 C 30.832031 31.757812 30.867188 31.75 30.90625 31.738281 C 30.941406 31.75 30.980469 31.757812 31.019531 31.757812 L 37.484375 31.757812 C 37.726562 31.757812 37.921875 31.554688 37.921875 31.304688 L 37.921875 20.296875 C 37.921875 20.199219 37.890625 20.105469 37.835938 20.027344 Z M 28.460938 14.773438 L 29.660156 14.773438 L 29.660156 15.296875 L 28.460938 15.296875 Z M 30.582031 30.847656 L 27.453125 30.847656 C 27.503906 30.773438 27.535156 30.683594 27.535156 30.585938 L 27.535156 27.953125 C 27.535156 27.703125 27.339844 27.5 27.097656 27.5 L 26.636719 27.5 C 26.394531 27.5 26.199219 27.703125 26.199219 27.953125 L 26.199219 30.585938 C 26.199219 30.683594 26.226562 30.773438 26.28125 30.847656 L 23.152344 30.847656 L 23.152344 20.753906 L 30.582031 20.753906 Z M 37.042969 30.847656 L 31.460938 30.847656 L 31.460938 20.449219 L 34.25 16.519531 L 37.042969 20.449219 Z M 33.328125 21.996094 L 32.867188 21.996094 C 32.625 21.996094 32.429688 22.199219 32.429688 22.453125 L 32.429688 24.363281 C 32.429688 24.617188 32.625 24.820312 32.867188 24.820312 L 33.328125 24.820312 C 33.570312 24.820312 33.765625 24.617188 33.765625 24.363281 L 33.765625 22.453125 C 33.765625 22.199219 33.570312 21.996094 33.328125 21.996094 Z M 35.40625 24.820312 L 35.867188 24.820312 C 36.109375 24.820312 36.304688 24.617188 36.304688 24.363281 L 36.304688 22.453125 C 36.304688 22.199219 36.109375 21.996094 35.867188 21.996094 L 35.40625 21.996094 C 35.164062 21.996094 34.96875 22.199219 34.96875 22.453125 L 34.96875 24.363281 C 34.96875 24.617188 35.164062 24.820312 35.40625 24.820312 Z M 33.328125 26.304688 L 32.867188 26.304688 C 32.625 26.304688 32.429688 26.507812 32.429688 26.757812 L 32.429688 28.671875 C 32.429688 28.921875 32.625 29.125 32.867188 29.125 L 33.328125 29.125 C 33.570312 29.125 33.765625 28.921875 33.765625 28.671875 L 33.765625 26.757812 C 33.765625 26.507812 33.570312 26.304688 33.328125 26.304688 Z M 35.40625 29.125 L 35.867188 29.125 C 36.109375 29.125 36.304688 28.921875 36.304688 28.671875 L 36.304688 26.757812 C 36.304688 26.507812 36.109375 26.304688 35.867188 26.304688 L 35.40625 26.304688 C 35.164062 26.304688 34.96875 26.507812 34.96875 26.757812 L 34.96875 28.671875 C 34.96875 28.921875 35.164062 29.125 35.40625 29.125 Z M 26.636719 24.820312 L 27.097656 24.820312 C 27.339844 24.820312 27.535156 24.617188 27.535156 24.363281 L 27.535156 22.453125 C 27.535156 22.199219 27.339844 21.996094 27.097656 21.996094 L 26.636719 21.996094 C 26.394531 21.996094 26.199219 22.199219 26.199219 22.453125 L 26.199219 24.363281 C 26.199219 24.617188 26.394531 24.820312 26.636719 24.820312 Z M 28.714844 24.820312 L 29.175781 24.820312 C 29.417969 24.820312 29.613281 24.617188 29.613281 24.363281 L 29.613281 22.453125 C 29.613281 22.199219 29.417969 21.996094 29.175781 21.996094 L 28.714844 21.996094 C 28.472656 21.996094 28.273438 22.199219 28.273438 22.453125 L 28.273438 24.363281 C 28.273438 24.617188 28.472656 24.820312 28.714844 24.820312 Z M 28.714844 29.125 L 29.175781 29.125 C 29.417969 29.125 29.613281 28.921875 29.613281 28.671875 L 29.613281 26.757812 C 29.613281 26.507812 29.417969 26.304688 29.175781 26.304688 L 28.714844 26.304688 C 28.472656 26.304688 28.273438 26.507812 28.273438 26.757812 L 28.273438 28.671875 C 28.273438 28.921875 28.472656 29.125 28.714844 29.125 Z M 24.558594 24.820312 L 25.019531 24.820312 C 25.261719 24.820312 25.460938 24.617188 25.460938 24.363281 L 25.460938 22.453125 C 25.460938 22.199219 25.261719 21.996094 25.019531 21.996094 L 24.558594 21.996094 C 24.316406 21.996094 24.121094 22.199219 24.121094 22.453125 L 24.121094 24.363281 C 24.121094 24.617188 24.316406 24.820312 24.558594 24.820312 Z M 24.558594 29.125 L 25.019531 29.125 C 25.261719 29.125 25.460938 28.921875 25.460938 28.671875 L 25.460938 26.757812 C 25.460938 26.507812 25.261719 26.304688 25.019531 26.304688 L 24.558594 26.304688 C 24.316406 26.304688 24.121094 26.507812 24.121094 26.757812 L 24.121094 28.671875 C 24.121094 28.921875 24.316406 29.125 24.558594 29.125 Z M 24.558594 29.125 " fill-opacity="1" fill-rule="nonzero"/></g><path stroke-linecap="butt" transform="matrix(0, 0.74564, -0.74564, 0, 43.48999, 11.155041)" fill="none" stroke-linejoin="miter" d="M 0.001621 7.499002 L 28.123454 7.499002 " stroke="#8eb826" stroke-width="15" stroke-opacity="1" stroke-miterlimit="4"/><g clip-path="url(#613cadbfc1)"><path fill="#000000" d="M 49.480469 15.082031 L 45.941406 12.023438 C 45.933594 12.015625 45.925781 12.011719 45.917969 12.003906 C 45.90625 11.996094 45.894531 11.988281 45.882812 11.980469 C 45.871094 11.972656 45.855469 11.964844 45.839844 11.957031 C 45.828125 11.949219 45.816406 11.945312 45.804688 11.941406 C 45.789062 11.933594 45.769531 11.925781 45.75 11.921875 C 45.742188 11.921875 45.730469 11.917969 45.71875 11.914062 C 45.6875 11.910156 45.660156 11.90625 45.628906 11.90625 L 41.308594 11.90625 L 41.308594 10.859375 C 41.308594 10.59375 41.09375 10.375 40.828125 10.375 L 38.550781 10.375 C 38.285156 10.375 38.070312 10.59375 38.070312 10.859375 L 38.070312 11.90625 L 36.53125 11.90625 C 36.414062 11.90625 36.304688 11.945312 36.21875 12.023438 L 32.679688 15.082031 C 32.574219 15.171875 32.511719 15.308594 32.511719 15.449219 L 32.511719 31.515625 C 32.511719 31.78125 32.726562 32 32.992188 32 L 41.839844 32 C 41.882812 32 41.925781 31.992188 41.964844 31.980469 C 42.003906 31.992188 42.046875 32 42.089844 32 L 49.167969 32 C 49.433594 32 49.648438 31.78125 49.648438 31.515625 L 49.648438 15.449219 C 49.648438 15.308594 49.585938 15.171875 49.480469 15.082031 Z M 39.03125 11.34375 L 40.347656 11.34375 L 40.347656 11.90625 L 39.03125 11.90625 Z M 41.609375 31.03125 L 38.183594 31.03125 C 38.242188 30.949219 38.273438 30.855469 38.273438 30.75 L 38.273438 27.945312 C 38.273438 27.675781 38.058594 27.460938 37.792969 27.460938 L 37.289062 27.460938 C 37.023438 27.460938 36.808594 27.675781 36.808594 27.945312 L 36.808594 30.75 C 36.808594 30.855469 36.84375 30.949219 36.898438 31.03125 L 33.472656 31.03125 L 33.472656 16.1875 L 41.609375 16.1875 Z M 48.6875 31.03125 L 42.570312 31.03125 L 42.570312 15.671875 L 45.628906 13.027344 L 48.6875 15.671875 Z M 44.617188 17.003906 L 44.113281 17.003906 C 43.847656 17.003906 43.632812 17.222656 43.632812 17.488281 L 43.632812 19.527344 C 43.632812 19.796875 43.847656 20.015625 44.113281 20.015625 L 44.617188 20.015625 C 44.882812 20.015625 45.097656 19.796875 45.097656 19.527344 L 45.097656 17.488281 C 45.097656 17.222656 44.882812 17.003906 44.617188 17.003906 Z M 46.894531 20.015625 L 47.398438 20.015625 C 47.664062 20.015625 47.878906 19.796875 47.878906 19.527344 L 47.878906 17.488281 C 47.878906 17.222656 47.664062 17.003906 47.398438 17.003906 L 46.894531 17.003906 C 46.628906 17.003906 46.414062 17.222656 46.414062 17.488281 L 46.414062 19.527344 C 46.414062 19.796875 46.628906 20.015625 46.894531 20.015625 Z M 44.617188 21.59375 L 44.113281 21.59375 C 43.847656 21.59375 43.632812 21.8125 43.632812 22.078125 L 43.632812 24.121094 C 43.632812 24.386719 43.847656 24.605469 44.113281 24.605469 L 44.617188 24.605469 C 44.882812 24.605469 45.097656 24.386719 45.097656 24.121094 L 45.097656 22.078125 C 45.097656 21.8125 44.882812 21.59375 44.617188 21.59375 Z M 46.894531 24.605469 L 47.398438 24.605469 C 47.664062 24.605469 47.878906 24.386719 47.878906 24.121094 L 47.878906 22.078125 C 47.878906 21.8125 47.664062 21.59375 47.398438 21.59375 L 46.894531 21.59375 C 46.628906 21.59375 46.414062 21.8125 46.414062 22.078125 L 46.414062 24.121094 C 46.414062 24.386719 46.628906 24.605469 46.894531 24.605469 Z M 44.617188 26.183594 L 44.113281 26.183594 C 43.847656 26.183594 43.632812 26.402344 43.632812 26.667969 L 43.632812 28.710938 C 43.632812 28.976562 43.847656 29.195312 44.113281 29.195312 L 44.617188 29.195312 C 44.882812 29.195312 45.097656 28.976562 45.097656 28.710938 L 45.097656 26.667969 C 45.097656 26.402344 44.882812 26.183594 44.617188 26.183594 Z M 46.894531 29.195312 L 47.398438 29.195312 C 47.664062 29.195312 47.878906 28.976562 47.878906 28.710938 L 47.878906 26.667969 C 47.878906 26.402344 47.664062 26.183594 47.398438 26.183594 L 46.894531 26.183594 C 46.628906 26.183594 46.414062 26.402344 46.414062 26.667969 L 46.414062 28.710938 C 46.414062 28.976562 46.628906 29.195312 46.894531 29.195312 Z M 37.289062 20.015625 L 37.792969 20.015625 C 38.058594 20.015625 38.273438 19.796875 38.273438 19.527344 L 38.273438 17.488281 C 38.273438 17.222656 38.058594 17.003906 37.792969 17.003906 L 37.289062 17.003906 C 37.023438 17.003906 36.808594 17.222656 36.808594 17.488281 L 36.808594 19.527344 C 36.808594 19.796875 37.023438 20.015625 37.289062 20.015625 Z M 39.5625 20.015625 L 40.070312 20.015625 C 40.335938 20.015625 40.550781 19.796875 40.550781 19.527344 L 40.550781 17.488281 C 40.550781 17.222656 40.332031 17.003906 40.070312 17.003906 L 39.5625 17.003906 C 39.296875 17.003906 39.082031 17.222656 39.082031 17.488281 L 39.082031 19.527344 C 39.082031 19.796875 39.296875 20.015625 39.5625 20.015625 Z M 37.289062 24.605469 L 37.792969 24.605469 C 38.058594 24.605469 38.273438 24.386719 38.273438 24.121094 L 38.273438 22.078125 C 38.273438 21.8125 38.058594 21.59375 37.792969 21.59375 L 37.289062 21.59375 C 37.023438 21.59375 36.808594 21.8125 36.808594 22.078125 L 36.808594 24.121094 C 36.808594 24.386719 37.023438 24.605469 37.289062 24.605469 Z M 39.5625 24.605469 L 40.070312 24.605469 C 40.335938 24.605469 40.550781 24.386719 40.550781 24.121094 L 40.550781 22.078125 C 40.550781 21.8125 40.332031 21.59375 40.070312 21.59375 L 39.5625 21.59375 C 39.296875 21.59375 39.082031 21.8125 39.082031 22.078125 L 39.082031 24.121094 C 39.082031 24.386719 39.296875 24.605469 39.5625 24.605469 Z M 39.5625 29.195312 L 40.070312 29.195312 C 40.335938 29.195312 40.550781 28.976562 40.550781 28.710938 L 40.550781 26.667969 C 40.550781 26.402344 40.332031 26.183594 40.070312 26.183594 L 39.5625 26.183594 C 39.296875 26.183594 39.082031 26.402344 39.082031 26.667969 L 39.082031 28.710938 C 39.082031 28.976562 39.296875 29.195312 39.5625 29.195312 Z M 35.011719 20.015625 L 35.519531 20.015625 C 35.785156 20.015625 36 19.796875 36 19.527344 L 36 17.488281 C 36 17.222656 35.785156 17.003906 35.519531 17.003906 L 35.011719 17.003906 C 34.746094 17.003906 34.53125 17.222656 34.53125 17.488281 L 34.53125 19.527344 C 34.53125 19.796875 34.746094 20.015625 35.011719 20.015625 Z M 35.011719 24.605469 L 35.519531 24.605469 C 35.785156 24.605469 36 24.386719 36 24.121094 L 36 22.078125 C 36 21.8125 35.785156 21.59375 35.519531 21.59375 L 35.011719 21.59375 C 34.746094 21.59375 34.53125 21.8125 34.53125 22.078125 L 34.53125 24.121094 C 34.53125 24.386719 34.746094 24.605469 35.011719 24.605469 Z M 35.011719 29.195312 L 35.519531 29.195312 C 35.785156 29.195312 36 28.976562 36 28.710938 L 36 26.667969 C 36 26.402344 35.785156 26.183594 35.519531 26.183594 L 35.011719 26.183594 C 34.746094 26.183594 34.53125 26.402344 34.53125 26.667969 L 34.53125 28.710938 C 34.53125 28.976562 34.746094 29.195312 35.011719 29.195312 Z M 35.011719 29.195312 " fill-opacity="1" fill-rule="nonzero"/></g><g fill="#8eb826" fill-opacity="1"><g transform="translate(78.555089, 29.687435)"><g><path d="M 1.953125 0 L 1.953125 -15.578125 L 5.265625 -15.578125 L 5.265625 -2.734375 L 11.578125 -2.734375 L 11.578125 0 Z M 1.953125 0 "/></g></g></g><g fill="#8eb826" fill-opacity="1"><g transform="translate(90.174746, 29.687435)"><g><path d="M 1.5625 -14.984375 C 1.5625 -16.046875 2.148438 -16.578125 3.328125 -16.578125 C 4.515625 -16.578125 5.109375 -16.046875 5.109375 -14.984375 C 5.109375 -14.484375 4.957031 -14.09375 4.65625 -13.8125 C 4.363281 -13.53125 3.921875 -13.390625 3.328125 -13.390625 C 2.148438 -13.390625 1.5625 -13.921875 1.5625 -14.984375 Z M 4.953125 0 L 1.703125 0 L 1.703125 -11.90625 L 4.953125 -11.90625 Z M 4.953125 0 "/></g></g></g><g fill="#8eb826" fill-opacity="1"><g transform="translate(96.130572, 29.687435)"><g><path d="M 4.140625 -6.078125 L 0.3125 -11.90625 L 4 -11.90625 L 6.3125 -8.109375 L 8.640625 -11.90625 L 12.328125 -11.90625 L 8.453125 -6.078125 L 12.5 0 L 8.8125 0 L 6.3125 -4.078125 L 3.796875 0 L 0.109375 0 Z M 4.140625 -6.078125 "/></g></g></g><g fill="#8eb826" fill-opacity="1"><g transform="translate(108.037678, 29.687435)"><g><path d="M 4.296875 -5.96875 C 4.296875 -4.789062 4.488281 -3.898438 4.875 -3.296875 C 5.257812 -2.691406 5.890625 -2.390625 6.765625 -2.390625 C 7.628906 -2.390625 8.25 -2.691406 8.625 -3.296875 C 9.007812 -3.898438 9.203125 -4.789062 9.203125 -5.96875 C 9.203125 -7.15625 9.007812 -8.039062 8.625 -8.625 C 8.238281 -9.21875 7.609375 -9.515625 6.734375 -9.515625 C 5.867188 -9.515625 5.242188 -9.21875 4.859375 -8.625 C 4.484375 -8.039062 4.296875 -7.15625 4.296875 -5.96875 Z M 12.53125 -5.96875 C 12.53125 -4.03125 12.015625 -2.515625 10.984375 -1.421875 C 9.960938 -0.328125 8.539062 0.21875 6.71875 0.21875 C 5.570312 0.21875 4.5625 -0.03125 3.6875 -0.53125 C 2.820312 -1.03125 2.15625 -1.75 1.6875 -2.6875 C 1.21875 -3.625 0.984375 -4.71875 0.984375 -5.96875 C 0.984375 -7.914062 1.488281 -9.425781 2.5 -10.5 C 3.519531 -11.582031 4.945312 -12.125 6.78125 -12.125 C 7.925781 -12.125 8.9375 -11.875 9.8125 -11.375 C 10.6875 -10.882812 11.359375 -10.171875 11.828125 -9.234375 C 12.296875 -8.304688 12.53125 -7.21875 12.53125 -5.96875 Z M 12.53125 -5.96875 "/></g></g></g><g fill="#8eb826" fill-opacity="1"><g transform="translate(120.844085, 29.687435)"><g/></g></g><g fill="#8eb826" fill-opacity="1"><g transform="translate(125.809807, 29.687435)"><g/></g></g><g fill="#8eb826" fill-opacity="1"><g transform="translate(130.783581, 29.687435)"><g><path d="M 9.984375 0 L 0.578125 0 L 0.578125 -1.921875 L 6.109375 -9.421875 L 0.921875 -9.421875 L 0.921875 -11.90625 L 9.796875 -11.90625 L 9.796875 -9.796875 L 4.4375 -2.484375 L 9.984375 -2.484375 Z M 9.984375 0 "/></g></g></g><g fill="#8eb826" fill-opacity="1"><g transform="translate(140.721123, 29.687435)"><g><path d="M 6.640625 -9.8125 C 5.953125 -9.8125 5.410156 -9.59375 5.015625 -9.15625 C 4.628906 -8.726562 4.40625 -8.113281 4.34375 -7.3125 L 8.90625 -7.3125 C 8.882812 -8.113281 8.671875 -8.726562 8.265625 -9.15625 C 7.867188 -9.59375 7.328125 -9.8125 6.640625 -9.8125 Z M 7.09375 0.21875 C 5.175781 0.21875 3.675781 -0.304688 2.59375 -1.359375 C 1.519531 -2.421875 0.984375 -3.925781 0.984375 -5.875 C 0.984375 -7.863281 1.476562 -9.398438 2.46875 -10.484375 C 3.46875 -11.578125 4.847656 -12.125 6.609375 -12.125 C 8.296875 -12.125 9.609375 -11.644531 10.546875 -10.6875 C 11.484375 -9.726562 11.953125 -8.40625 11.953125 -6.71875 L 11.953125 -5.140625 L 4.265625 -5.140625 C 4.304688 -4.222656 4.582031 -3.503906 5.09375 -2.984375 C 5.601562 -2.460938 6.320312 -2.203125 7.25 -2.203125 C 7.957031 -2.203125 8.628906 -2.273438 9.265625 -2.421875 C 9.910156 -2.578125 10.582031 -2.816406 11.28125 -3.140625 L 11.28125 -0.625 C 10.707031 -0.34375 10.097656 -0.132812 9.453125 0 C 8.804688 0.144531 8.019531 0.21875 7.09375 0.21875 Z M 7.09375 0.21875 "/></g></g></g><g fill="#8eb826" fill-opacity="1"><g transform="translate(152.905033, 29.687435)"><g><path d="M 8.34375 -12.125 C 8.789062 -12.125 9.160156 -12.09375 9.453125 -12.03125 L 9.203125 -8.984375 C 8.941406 -9.054688 8.625 -9.09375 8.25 -9.09375 C 7.207031 -9.09375 6.394531 -8.828125 5.8125 -8.296875 C 5.238281 -7.765625 4.953125 -7.019531 4.953125 -6.0625 L 4.953125 0 L 1.703125 0 L 1.703125 -11.90625 L 4.171875 -11.90625 L 4.640625 -9.90625 L 4.796875 -9.90625 C 5.171875 -10.570312 5.671875 -11.109375 6.296875 -11.515625 C 6.929688 -11.921875 7.613281 -12.125 8.34375 -12.125 Z M 8.34375 -12.125 "/></g></g></g><g fill="#8eb826" fill-opacity="1"><g transform="translate(162.10798, 29.687435)"><g><path d="M 4.296875 -5.96875 C 4.296875 -4.789062 4.488281 -3.898438 4.875 -3.296875 C 5.257812 -2.691406 5.890625 -2.390625 6.765625 -2.390625 C 7.628906 -2.390625 8.25 -2.691406 8.625 -3.296875 C 9.007812 -3.898438 9.203125 -4.789062 9.203125 -5.96875 C 9.203125 -7.15625 9.007812 -8.039062 8.625 -8.625 C 8.238281 -9.21875 7.609375 -9.515625 6.734375 -9.515625 C 5.867188 -9.515625 5.242188 -9.21875 4.859375 -8.625 C 4.484375 -8.039062 4.296875 -7.15625 4.296875 -5.96875 Z M 12.53125 -5.96875 C 12.53125 -4.03125 12.015625 -2.515625 10.984375 -1.421875 C 9.960938 -0.328125 8.539062 0.21875 6.71875 0.21875 C 5.570312 0.21875 4.5625 -0.03125 3.6875 -0.53125 C 2.820312 -1.03125 2.15625 -1.75 1.6875 -2.6875 C 1.21875 -3.625 0.984375 -4.71875 0.984375 -5.96875 C 0.984375 -7.914062 1.488281 -9.425781 2.5 -10.5 C 3.519531 -11.582031 4.945312 -12.125 6.78125 -12.125 C 7.925781 -12.125 8.9375 -11.875 9.8125 -11.375 C 10.6875 -10.882812 11.359375 -10.171875 11.828125 -9.234375 C 12.296875 -8.304688 12.53125 -7.21875 12.53125 -5.96875 Z M 12.53125 -5.96875 "/></g></g></g></svg>