<svg xmlns="http://www.w3.org/2000/svg" xmlns:xlink="http://www.w3.org/1999/xlink" width="61" zoomAndPan="magnify" viewBox="0 0 45.75 45.749999" height="61" preserveAspectRatio="xMidYMid meet" version="1.0"><defs><clipPath id="803f708663"><path d="M 0 5.957031 L 41.933594 5.957031 L 41.933594 45.5 L 0 45.5 Z M 0 5.957031 " clip-rule="nonzero"/></clipPath><clipPath id="2920865b3c"><path d="M 4.550781 5.957031 C -16.09375 5.957031 -32.832031 22.691406 -32.832031 43.339844 C -32.832031 63.984375 -16.09375 80.71875 4.550781 80.71875 C 25.195312 80.71875 41.933594 63.984375 41.933594 43.339844 C 41.933594 22.691406 25.195312 5.957031 4.550781 5.957031 Z M 4.550781 5.957031 " clip-rule="nonzero"/></clipPath><clipPath id="990afd9359"><path d="M 1.714844 40.332031 L 45.5 40.332031 L 45.5 45.5 L 1.714844 45.5 Z M 1.714844 40.332031 " clip-rule="nonzero"/></clipPath><clipPath id="0fb00f2f31"><path d="M 0 0 L 4.550781 0 L 4.550781 45.5 L 0 45.5 Z M 0 0 " clip-rule="nonzero"/></clipPath></defs><g clip-path="url(#803f708663)"><g clip-path="url(#2920865b3c)"><path fill="#8eb826" d="M -32.832031 5.957031 L 41.933594 5.957031 L 41.933594 80.71875 L -32.832031 80.71875 Z M -32.832031 5.957031 " fill-opacity="1" fill-rule="nonzero"/></g></g><g clip-path="url(#990afd9359)"><path fill="#ffffff" d="M 1.714844 40.332031 L 80.015625 40.332031 L 80.015625 115.097656 L 1.714844 115.097656 Z M 1.714844 40.332031 " fill-opacity="1" fill-rule="nonzero"/></g><g clip-path="url(#0fb00f2f31)"><path fill="#ffffff" d="M -73.75 -14.632812 L 4.550781 -14.632812 L 4.550781 60.132812 L -73.75 60.132812 Z M -73.75 -14.632812 " fill-opacity="1" fill-rule="nonzero"/></g></svg>